<mxfile host="app.diagrams.net" agent="Mozilla/5.0 (Windows NT 10.0; Win64; x64) AppleWebKit/537.36 (KHTML, like Gecko) Chrome/130.0.0.0 Safari/537.36" version="24.8.4">
  <diagram name="Page-1" id="2Ya3SlxSF7kXxXvZG83w">
    <mxGraphModel grid="0" page="0" gridSize="10" guides="1" tooltips="1" connect="1" arrows="1" fold="1" pageScale="1" pageWidth="827" pageHeight="1169" math="0" shadow="0">
      <root>
        <mxCell id="0" />
        <mxCell id="1" parent="0" />
        <mxCell id="McMMfLWn3D61VZwVARcu-1" style="edgeStyle=none;curved=1;rounded=0;orthogonalLoop=1;jettySize=auto;html=1;entryX=0;entryY=0.5;entryDx=0;entryDy=0;fontSize=25;startSize=8;endSize=8;" edge="1" parent="1" source="McMMfLWn3D61VZwVARcu-3" target="McMMfLWn3D61VZwVARcu-4">
          <mxGeometry relative="1" as="geometry" />
        </mxCell>
        <mxCell id="McMMfLWn3D61VZwVARcu-2" style="edgeStyle=none;curved=1;rounded=0;orthogonalLoop=1;jettySize=auto;html=1;fontSize=12;startSize=8;endSize=8;" edge="1" parent="1" source="McMMfLWn3D61VZwVARcu-3" target="McMMfLWn3D61VZwVARcu-15">
          <mxGeometry relative="1" as="geometry">
            <mxPoint x="-664.800048828125" y="2517.6000366210938" as="targetPoint" />
          </mxGeometry>
        </mxCell>
        <mxCell id="McMMfLWn3D61VZwVARcu-3" value="SInh viên" style="shape=umlActor;verticalLabelPosition=bottom;verticalAlign=top;html=1;fontSize=25;" vertex="1" parent="1">
          <mxGeometry x="-867" y="2796" width="30" height="60" as="geometry" />
        </mxCell>
        <mxCell id="McMMfLWn3D61VZwVARcu-4" value="Quản lí thông tin cá nhân" style="ellipse;whiteSpace=wrap;html=1;fontSize=25;" vertex="1" parent="1">
          <mxGeometry x="-649" y="2674" width="140" height="70" as="geometry" />
        </mxCell>
        <mxCell id="McMMfLWn3D61VZwVARcu-5" value="&amp;lt;&amp;lt;extend&amp;gt;&amp;gt;" style="html=1;verticalAlign=bottom;endArrow=open;dashed=1;endSize=8;curved=0;rounded=0;fontSize=25;entryX=0.5;entryY=1;entryDx=0;entryDy=0;" edge="1" parent="1">
          <mxGeometry relative="1" as="geometry">
            <mxPoint x="-365" y="2683" as="sourcePoint" />
            <mxPoint x="-509" y="2700" as="targetPoint" />
          </mxGeometry>
        </mxCell>
        <mxCell id="McMMfLWn3D61VZwVARcu-6" value="Thêm, sửa, xóa" style="ellipse;whiteSpace=wrap;html=1;fontSize=25;" vertex="1" parent="1">
          <mxGeometry x="-360" y="2646" width="140" height="70" as="geometry" />
        </mxCell>
        <mxCell id="McMMfLWn3D61VZwVARcu-7" value="Tìm kiếm" style="ellipse;whiteSpace=wrap;html=1;fontSize=25;" vertex="1" parent="1">
          <mxGeometry x="-627" y="2892" width="140" height="70" as="geometry" />
        </mxCell>
        <mxCell id="McMMfLWn3D61VZwVARcu-8" style="edgeStyle=none;curved=1;rounded=0;orthogonalLoop=1;jettySize=auto;html=1;entryX=0;entryY=0.5;entryDx=0;entryDy=0;fontSize=25;startSize=8;endSize=8;" edge="1" parent="1" target="McMMfLWn3D61VZwVARcu-7">
          <mxGeometry relative="1" as="geometry">
            <mxPoint x="-827" y="2827" as="sourcePoint" />
            <mxPoint x="-639" y="2719" as="targetPoint" />
          </mxGeometry>
        </mxCell>
        <mxCell id="McMMfLWn3D61VZwVARcu-9" value="&amp;lt;&amp;lt;extend&amp;gt;&amp;gt;" style="html=1;verticalAlign=bottom;endArrow=open;dashed=1;endSize=8;curved=0;rounded=0;fontSize=25;entryX=0.5;entryY=1;entryDx=0;entryDy=0;" edge="1" parent="1">
          <mxGeometry relative="1" as="geometry">
            <mxPoint x="-281" y="2856" as="sourcePoint" />
            <mxPoint x="-492" y="2925" as="targetPoint" />
          </mxGeometry>
        </mxCell>
        <mxCell id="McMMfLWn3D61VZwVARcu-10" value="Tìm kiếm khóa học" style="ellipse;whiteSpace=wrap;html=1;fontSize=25;" vertex="1" parent="1">
          <mxGeometry x="-277" y="2818" width="140" height="70" as="geometry" />
        </mxCell>
        <mxCell id="McMMfLWn3D61VZwVARcu-11" value="&amp;lt;&amp;lt;extend&amp;gt;&amp;gt;" style="html=1;verticalAlign=bottom;endArrow=open;dashed=1;endSize=8;curved=0;rounded=0;fontSize=25;entryX=0.5;entryY=1;entryDx=0;entryDy=0;" edge="1" parent="1">
          <mxGeometry relative="1" as="geometry">
            <mxPoint x="-322" y="2977" as="sourcePoint" />
            <mxPoint x="-487" y="2933" as="targetPoint" />
          </mxGeometry>
        </mxCell>
        <mxCell id="McMMfLWn3D61VZwVARcu-12" value="Tìm kiếm điểm&amp;nbsp;" style="ellipse;whiteSpace=wrap;html=1;fontSize=25;" vertex="1" parent="1">
          <mxGeometry x="-328" y="2962" width="140" height="70" as="geometry" />
        </mxCell>
        <mxCell id="McMMfLWn3D61VZwVARcu-13" value="&amp;lt;&amp;lt;extend&amp;gt;&amp;gt;" style="html=1;verticalAlign=bottom;endArrow=open;dashed=1;endSize=8;curved=0;rounded=0;fontSize=25;entryX=0.5;entryY=1;entryDx=0;entryDy=0;" edge="1" parent="1">
          <mxGeometry relative="1" as="geometry">
            <mxPoint x="-420" y="3089" as="sourcePoint" />
            <mxPoint x="-542" y="2962" as="targetPoint" />
          </mxGeometry>
        </mxCell>
        <mxCell id="McMMfLWn3D61VZwVARcu-14" value="Tìm kiếm hóa đơn" style="ellipse;whiteSpace=wrap;html=1;fontSize=25;" vertex="1" parent="1">
          <mxGeometry x="-445" y="3080" width="140" height="70" as="geometry" />
        </mxCell>
        <mxCell id="McMMfLWn3D61VZwVARcu-15" value="Đăng ký môn học" style="ellipse;whiteSpace=wrap;html=1;fontSize=25;" vertex="1" parent="1">
          <mxGeometry x="-638" y="2456" width="140" height="70" as="geometry" />
        </mxCell>
        <mxCell id="McMMfLWn3D61VZwVARcu-16" value="&amp;lt;&amp;lt;extend&amp;gt;&amp;gt;" style="html=1;verticalAlign=bottom;endArrow=open;dashed=1;endSize=8;curved=0;rounded=0;fontSize=25;entryX=0.5;entryY=1;entryDx=0;entryDy=0;" edge="1" parent="1">
          <mxGeometry relative="1" as="geometry">
            <mxPoint x="-410" y="2346" as="sourcePoint" />
            <mxPoint x="-504" y="2476" as="targetPoint" />
          </mxGeometry>
        </mxCell>
        <mxCell id="McMMfLWn3D61VZwVARcu-17" value="Quản lý lịch học" style="ellipse;whiteSpace=wrap;html=1;fontSize=25;" vertex="1" parent="1">
          <mxGeometry x="-409" y="2310" width="140" height="70" as="geometry" />
        </mxCell>
      </root>
    </mxGraphModel>
  </diagram>
</mxfile>
